<?xml version="1.0" encoding="UTF-8"?>
<svg width="1024" height="1024" viewBox="0 0 1024 1024" fill="none" xmlns="http://www.w3.org/2000/svg">
  <rect width="1024" height="1024" rx="224" fill="#4F46E5"/>
  <path d="M512 256C384.5 256 280 360.5 280 488C280 615.5 384.5 720 512 720C639.5 720 744 615.5 744 488C744 360.5 639.5 256 512 256ZM512 664C420.5 664 352 595.5 352 504C352 412.5 420.5 344 512 344C603.5 344 672 412.5 672 504C672 595.5 603.5 664 512 664Z" fill="white"/>
  <circle cx="512" cy="504" r="80" fill="white"/>
</svg> 